<?xml version="1.0" encoding="UTF-8" standalone="no"?><!DOCTYPE svg PUBLIC "-//W3C//DTD SVG 1.1//EN" "http://www.w3.org/Graphics/SVG/1.1/DTD/svg11.dtd"><svg width="100%" height="100%" viewBox="0 0 16 16" version="1.1" xmlns="http://www.w3.org/2000/svg" xmlns:xlink="http://www.w3.org/1999/xlink" xml:space="preserve" xmlns:serif="http://www.serif.com/" style="fill-rule:evenodd;clip-rule:evenodd;stroke-linejoin:round;stroke-miterlimit:2;"><rect id="Artboard1" x="0" y="0" width="16" height="16" style="fill:none;"/><g><path d="M8,3.734c2.354,0 4.266,1.912 4.266,4.266c0,2.354 -1.912,4.266 -4.266,4.266c-2.354,0 -4.266,-1.912 -4.266,-4.266c0,-2.354 1.912,-4.266 4.266,-4.266Zm0,0.684c1.977,0 3.582,1.605 3.582,3.582c0,1.977 -1.605,3.582 -3.582,3.582c-1.977,0 -3.582,-1.605 -3.582,-3.582c0,-1.977 1.605,-3.582 3.582,-3.582Z"/><path d="M10.037,14.698c-0.644,0.196 -1.328,0.302 -2.037,0.302c-1.438,0 -2.775,-0.435 -3.887,-1.179l0.493,-0.494l0.007,0.004c0.274,0.174 0.561,0.328 0.859,0.458c0.487,0.214 1.002,0.365 1.527,0.448c0.707,0.113 1.434,0.105 2.138,-0.023c0.2,-0.036 0.398,-0.082 0.593,-0.138l0.307,0.622Zm3.611,-3.87l0.677,0.173c-0.444,0.933 -1.089,1.753 -1.878,2.403l-0.311,-0.632c0.295,-0.255 0.566,-0.538 0.809,-0.844c0.272,-0.341 0.507,-0.71 0.703,-1.1Zm-11.469,-6.715l0.494,0.493c-0.125,0.195 -0.239,0.397 -0.341,0.605c-0.258,0.522 -0.442,1.079 -0.546,1.652c-0.128,0.704 -0.136,1.431 -0.023,2.138c0.083,0.525 0.234,1.04 0.448,1.527c0.13,0.298 0.284,0.585 0.458,0.859l0.004,0.007l-0.494,0.493c-0.744,-1.112 -1.179,-2.449 -1.179,-3.887c0,-1.438 0.435,-2.775 1.179,-3.887Zm12.135,4.063c0.004,-0.147 0.003,-0.293 -0.003,-0.44c-0.015,-0.365 -0.062,-0.728 -0.139,-1.085c-0.083,-0.38 -0.201,-0.751 -0.352,-1.109c-0.317,-0.748 -0.78,-1.433 -1.355,-2.007c-0.081,-0.082 -0.164,-0.161 -0.25,-0.238l0.335,-0.615c1.499,1.285 2.45,3.191 2.45,5.318c0,0.117 -0.003,0.234 -0.009,0.35l-0.677,-0.174Zm-4.481,-6.222c-0.16,-0.048 -0.321,-0.09 -0.484,-0.126c-0.357,-0.077 -0.72,-0.124 -1.085,-0.139c-0.376,-0.015 -0.754,0.002 -1.127,0.053c-0.344,0.047 -0.683,0.123 -1.014,0.226c-0.534,0.166 -1.045,0.404 -1.516,0.705l-0.494,-0.494c1.112,-0.744 2.449,-1.179 3.887,-1.179c0.756,0 1.484,0.12 2.167,0.342l-0.334,0.612Z"/><path d="M6.716,13.486c-2.051,-0.479 -3.672,-2.08 -4.181,-4.119l0.707,0c0.477,1.661 1.802,2.965 3.474,3.414l0,0.705Zm2.735,-0.753c2.024,-0.621 3.498,-2.506 3.498,-4.733c0,-0.083 -0.002,-0.166 -0.006,-0.249l0.671,-0.213c0.013,0.153 0.019,0.307 0.019,0.462c0,2.607 -1.776,4.803 -4.182,5.444l0,-0.711Zm-3.69,-9.902l0.128,0.692c-1.275,0.603 -2.251,1.734 -2.647,3.11l-0.707,0c0.427,-1.711 1.636,-3.112 3.226,-3.802Zm2.698,-0.445c1.793,0.145 3.35,1.131 4.275,2.563l-0.678,0.215c-0.789,-1.126 -2.035,-1.908 -3.467,-2.078l-0.13,-0.7Z"/></g></svg>